<svg xmlns="http://www.w3.org/2000/svg" viewBox="0 0 100 100">
  <rect width="100" height="100" fill="#ffd650" rx="15" ry="15" />
  <g stroke="none" fill="#99472D">
    <path
      d="M98.974 38.327l-7.89-11.343c-.031-.045-.076-.08-.111-.122-.052-.063-.101-.126-.16-.183-.023-.021-.042-.045-.065-.065-.049-.042-.105-.071-.157-.108-.048-.033-.086-.076-.137-.106-.027-.016-.058-.021-.085-.036-.007-.003-.012-.009-.019-.012-.021-.011-.036-.028-.058-.038L49.96 7.377a1.917 1.917 0 0 0-.236-.087c-.019-.006-.037-.015-.056-.021-.045-.013-.092-.021-.137-.03a2.02 2.02 0 0 0-.304-.043c-.033-.002-.066-.001-.1-.002-.047 0-.095-.005-.143-.002l-.01.001a2.018 2.018 0 0 0-.27.039c-.011.002-.021.002-.032.005-.042.009-.081.025-.122.037a1.726 1.726 0 0 0-.305.116c-.016.008-.034.01-.051.018L9.86 27.11l-.012.008c-.025.013-.049.03-.075.045a.213.213 0 0 0-.041.018c-.024.015-.044.035-.066.053a2.006 2.006 0 0 0-.271.218l-.02.016-.016.02c-.108.109-.205.23-.288.366-.006.009-.014.017-.019.026l-.003.008c-.012.021-.028.038-.04.059L-.008 44.823a2 2 0 0 0 .818 2.705L9 51.924v16.391c0 .736.292 1.414.941 1.762L50.216 91.73c.101.054.18.086.286.121.049.017.08.044.131.057a1.948 1.948 0 0 0 1.019-.016c.058-.017.107-.05.164-.071.107-.04.216-.074.316-.135.011-.006.017-.016.026-.021.009-.006.019-.007.027-.013l38.337-24.631c.011-.007.019-.018.029-.024.126-.084.242-.18.346-.289.016-.018.027-.038.043-.056.084-.095.157-.197.222-.308.022-.038.042-.078.062-.117.05-.1.09-.203.122-.312.013-.041-.193-.079-.184-.121.035-.148-.162-.299-.162-.456V38.802l5.229 2.462c.281.138.693.205.992.205.569 0 1.183-.243 1.572-.696.595-.692.701-1.698.181-2.446zM11.61 31.569l36.812 18.957L41.23 64.69 4.462 44.947l7.148-13.378zM13 67.118V54.072l28.141 15.11a1.997 1.997 0 0 0 1.545.146 1.997 1.997 0 0 0 1.185-1.003L49 58.222v28.403L13 67.118zm74-2.872L53 86.307V50.828l34-19.285v32.703z">
    </path>
  </g>
</svg>